<svg xmlns="http://www.w3.org/2000/svg" viewBox="0 0 320 64" role="img" aria-labelledby="title desc">
  <title id="title">BlockWise Cyprus</title>
  <desc id="desc">BlockWise Cyprus logo with building and yacht symbol</desc>
  <g transform="translate(8 10)">
    <rect x="0" y="10" width="18" height="34" rx="3" fill="#16324a"/>
    <rect x="22" y="0" width="18" height="44" rx="3" fill="#2f8b7a"/>
    <rect x="5" y="16" width="4" height="4" rx="1" fill="#fff" opacity=".95"/>
    <rect x="11" y="16" width="4" height="4" rx="1" fill="#fff" opacity=".95"/>
    <rect x="5" y="24" width="4" height="4" rx="1" fill="#fff" opacity=".95"/>
    <rect x="11" y="24" width="4" height="4" rx="1" fill="#fff" opacity=".95"/>
    <rect x="27" y="8" width="4" height="4" rx="1" fill="#fff" opacity=".95"/>
    <rect x="33" y="8" width="4" height="4" rx="1" fill="#fff" opacity=".95"/>
    <rect x="27" y="16" width="4" height="4" rx="1" fill="#fff" opacity=".95"/>
    <rect x="33" y="16" width="4" height="4" rx="1" fill="#fff" opacity=".95"/>
    <rect x="27" y="24" width="4" height="4" rx="1" fill="#fff" opacity=".95"/>
    <rect x="33" y="24" width="4" height="4" rx="1" fill="#fff" opacity=".95"/>
  </g>
  <g transform="translate(56 28)">
    <path d="M0 11c7 0 10.2-2.1 13.6-4.3 3.3-2.1 6.8-4.3 14.4-4.3 7.5 0 11 2.2 14.4 4.3C45.8 8.9 49 11 56 11" fill="none" stroke="#2f8b7a" stroke-width="3" stroke-linecap="round"/>
    <path d="M17 6.8 28 0l2.2 8.7 10.8.5-10.4 4.2Z" fill="#16324a"/>
    <path d="M27.8 0v11.2" stroke="#16324a" stroke-width="2.5" stroke-linecap="round"/>
  </g>
  <text x="128" y="30" font-family="Arial, Helvetica, sans-serif" font-size="22" font-weight="700" fill="#16324a">BlockWise</text>
  <text x="128" y="47" font-family="Arial, Helvetica, sans-serif" font-size="12" font-weight="700" letter-spacing="2.2" fill="#2f8b7a">CYPRUS</text>
</svg>
