<svg xmlns="http://www.w3.org/2000/svg" viewBox="0 0 900 700" role="img" aria-labelledby="title desc">
<title id="title">Modern residential building</title><desc id="desc">Stylised modern Mediterranean apartment building with landscaping.</desc>
<defs>
 <linearGradient id="sky" x1="0" y1="0" x2="0" y2="1"><stop stop-color="#e9f2f4"/><stop offset="1" stop-color="#f9fbfb"/></linearGradient>
 <linearGradient id="glass" x1="0" x2="1"><stop stop-color="#b8d8dc"/><stop offset="1" stop-color="#7eb3bb"/></linearGradient>
 <linearGradient id="shade" x1="0" x2="1"><stop stop-color="#e9eceb"/><stop offset="1" stop-color="#d9dfdd"/></linearGradient>
</defs>
<rect width="900" height="700" rx="34" fill="url(#sky)"/>
<circle cx="745" cy="120" r="64" fill="#fff4cf" opacity=".8"/>
<path d="M0 562 Q230 522 465 560 T900 548 V700 H0Z" fill="#dfe9e4"/>
<path d="M0 606 Q245 566 420 610 T900 598 V700 H0Z" fill="#c8dbd0"/>
<g transform="translate(220 92)">
 <rect x="0" y="112" width="392" height="420" rx="10" fill="#fdfdfc"/>
 <rect x="30" y="62" width="392" height="470" rx="10" fill="#f7f8f6"/>
 <rect x="62" y="0" width="382" height="532" rx="10" fill="#ffffff"/>
 <rect x="104" y="48" width="268" height="72" rx="7" fill="url(#glass)"/>
 <rect x="104" y="146" width="268" height="72" rx="7" fill="url(#glass)"/>
 <rect x="104" y="244" width="268" height="72" rx="7" fill="url(#glass)"/>
 <rect x="104" y="342" width="268" height="72" rx="7" fill="url(#glass)"/>
 <rect x="104" y="440" width="126" height="92" rx="7" fill="url(#glass)"/>
 <rect x="250" y="440" width="122" height="92" rx="7" fill="#e7efec"/>
 <g fill="url(#shade)">
  <rect x="82" y="118" width="320" height="20" rx="4"/>
  <rect x="82" y="216" width="320" height="20" rx="4"/>
  <rect x="82" y="314" width="320" height="20" rx="4"/>
  <rect x="82" y="412" width="320" height="20" rx="4"/>
 </g>
 <g stroke="#6f8e93" stroke-width="5" opacity=".65">
  <line x1="92" y1="135" x2="392" y2="135"/><line x1="92" y1="233" x2="392" y2="233"/><line x1="92" y1="331" x2="392" y2="331"/><line x1="92" y1="429" x2="392" y2="429"/>
 </g>
 <g fill="#7ca68f">
  <circle cx="91" cy="102" r="19"/><circle cx="385" cy="197" r="20"/><circle cx="98" cy="298" r="17"/><circle cx="388" cy="393" r="18"/>
 </g>
</g>
<g transform="translate(112 430)">
 <rect x="0" y="98" width="12" height="116" rx="5" fill="#86674d"/>
 <path d="M7 101 C-38 68 -31 18 12 48 C14 6 62 13 50 53 C91 45 102 90 58 105 C85 132 57 164 24 139 C4 174 -31 153 -16 120 C-52 110 -50 72 -13 75Z" fill="#5f9276"/>
</g>
<g transform="translate(730 464)">
 <rect x="0" y="65" width="9" height="87" rx="4" fill="#86674d"/>
 <path d="M4 67 C-30 43 -24 10 8 32 C10 2 48 8 38 37 C68 32 78 65 44 76 C64 97 42 119 19 101 C3 126 -24 112 -12 87 C-39 80 -38 52 -10 54Z" fill="#6aa07e"/>
</g>
</svg>
